<?xml version="1.0" encoding="UTF-8"?>
<!DOCTYPE svg PUBLIC "-//W3C//DTD SVG 1.1//EN" "http://www.w3.org/Graphics/SVG/1.1/DTD/svg11.dtd">
<svg xmlns="http://www.w3.org/2000/svg" xmlns:xlink="http://www.w3.org/1999/xlink" version="1.1" width="423px" height="423px" viewBox="-0.5 -0.5 423 423"><defs/><g><rect x="0" y="345" width="420" height="75" fill="none" stroke="none" pointer-events="all"/><g fill="#FFFFFF" font-family="Helvetica" text-anchor="middle" font-size="42px"><text x="209.5" y="389.5">EOSC-Performance</text></g><rect x="0" y="0" width="420" height="30" fill="none" stroke="none" pointer-events="all"/><rect x="-195" y="195" width="420" height="30" fill="none" stroke="none" transform="rotate(90,15,210)" pointer-events="all"/><ellipse cx="120" cy="237.75" rx="90" ry="74.25" fill="#fafafa" stroke="#e6e6e6" stroke-width="3" transform="translate(0,237.75)scale(1,-1)translate(0,-237.75)rotate(-180,120,237.75)" pointer-events="none"/><ellipse cx="210" cy="237" rx="108.00000000000006" ry="90" fill="#fafafa" stroke="#e6e6e6" stroke-width="3" transform="translate(0,237)scale(1,-1)translate(0,-237)rotate(-180,210,237)" pointer-events="none"/><ellipse cx="300" cy="237.75" rx="90" ry="74.25" fill="#fafafa" stroke="#e6e6e6" stroke-width="3" transform="translate(0,237.75)scale(1,-1)translate(0,-237.75)rotate(-180,300,237.75)" pointer-events="none"/><rect x="89.4" y="171.75" width="241.2" height="108" fill="#fafafa" stroke="none" transform="translate(0,225.75)scale(1,-1)translate(0,-225.75)rotate(-180,210,225.75)" pointer-events="none"/><ellipse cx="138" cy="138" rx="108" ry="108" fill="#ffffff" stroke="#000000" stroke-width="3" transform="translate(138,0)scale(-1,1)translate(-138,0)" pointer-events="none"/><path d="M 40.8 138 C 40.8 84.32 84.32 40.8 138 40.8 C 191.68 40.8 235.2 84.32 235.2 138 L 246 138 C 246 78.35 197.65 30 138 30 C 78.35 30 30 78.35 30 138 Z" fill="#ddeeff" stroke="none" transform="translate(138,0)scale(-1,1)translate(-138,0)" pointer-events="none"/><path d="M 40.8 138 C 40.82 163.77 51.08 188.48 69.31 206.69 L 61.54 214.46 C 41.29 194.17 29.95 166.66 30 138 Z" fill="#99ccff" stroke="none" transform="translate(138,0)scale(-1,1)translate(-138,0)" pointer-events="none"/><path d="M 246 138 C 246.05 166.66 234.71 194.17 214.46 214.46 L 206.69 206.69 C 224.92 188.48 235.18 163.77 235.2 138 Z" fill="#bbddff" stroke="none" transform="translate(138,0)scale(-1,1)translate(-138,0)" pointer-events="none"/><g fill="#666666" font-family="Arial,Helvetica" pointer-events="none" text-anchor="middle" font-size="36px" transform="translate(138,0)scale(-1,1)translate(-138,0)"/><g fill="#666666" font-family="Arial,Helvetica" pointer-events="none" font-size="36px" transform="translate(138,0)scale(-1,1)translate(-138,0)"/><g fill="#666666" font-family="Arial,Helvetica" pointer-events="none" text-anchor="end" font-size="36px" transform="translate(138,0)scale(-1,1)translate(-138,0)"/><path d="M 62.17 106.59 L 142.13 128.02 C 147.64 130.3 150.26 136.62 147.98 142.13 C 146.88 144.78 144.78 146.88 142.13 147.98 C 139.49 149.07 136.51 149.07 133.87 147.98 Z" fill="#008cff" stroke="none" transform="translate(138,0)scale(-1,1)translate(-138,0)" pointer-events="none"/><path d="M 135.84 135.84 L 140.16 135.84 L 140.16 140.16 L 135.84 140.16 Z" fill="#ffffff" stroke="none" transform="translate(138,0)scale(-1,1)translate(-138,0)" pointer-events="none"/><ellipse cx="138" cy="138" rx="108" ry="108" fill="none" stroke="#000000" stroke-width="3" transform="translate(138,0)scale(-1,1)translate(-138,0)" pointer-events="none"/><path d="M 61.54 214.46 L 77.3 198.7 M 214.46 214.46 L 198.7 198.7" fill="none" stroke="#000000" stroke-width="3" stroke-miterlimit="10" transform="translate(138,0)scale(-1,1)translate(-138,0)" pointer-events="none"/><g fill="#666666" font-family="Helvetica" pointer-events="none" text-anchor="middle" font-size="36px"><text x="140.5" y="96.5">CPU[%]</text></g><g fill="#666666" font-family="Helvetica" pointer-events="none" font-size="36px"><text x="86.5" y="221.83">0</text></g><g fill="#666666" font-family="Helvetica" pointer-events="none" text-anchor="end" font-size="36px"><text x="185.5" y="221.83">100</text></g><rect x="258" y="30" width="135" height="207" fill="#ffffff" stroke="none" pointer-events="none"/><rect x="258" y="71.4" width="101.25" height="10.35" fill="#008cff" stroke="none" pointer-events="none"/><rect x="258" y="123.15" width="81" height="10.35" fill="#008cff" stroke="none" pointer-events="none"/><rect x="258" y="174.9" width="128.25" height="10.35" fill="#008cff" stroke="none" pointer-events="none"/><rect x="258" y="81.75" width="114.75" height="10.35" fill="#dddddd" stroke="none" pointer-events="none"/><rect x="258" y="133.5" width="87.75" height="10.35" fill="#dddddd" stroke="none" pointer-events="none"/><rect x="258" y="185.25" width="108" height="10.35" fill="#dddddd" stroke="none" pointer-events="none"/><path d="M 258 30 L 258 237 L 393 237" fill="none" stroke="#666666" stroke-width="6" stroke-miterlimit="10" pointer-events="none"/></g></svg>