<?xml version="1.0" encoding="UTF-8"?>
<!DOCTYPE svg PUBLIC "-//W3C//DTD SVG 1.1//EN" "http://www.w3.org/Graphics/SVG/1.1/DTD/svg11.dtd">
<svg xmlns="http://www.w3.org/2000/svg" xmlns:xlink="http://www.w3.org/1999/xlink" version="1.1" width="393px" height="393px" viewBox="-0.5 -0.5 393 393"><defs/><g><rect x="0" y="0" width="390" height="60" fill="none" stroke="none" pointer-events="all"/><rect x="-180" y="180" width="390" height="30" fill="none" stroke="none" transform="rotate(90,15,195)" pointer-events="all"/><ellipse cx="105" cy="255.75" rx="90" ry="74.25" fill="#fafafa" stroke="#e6e6e6" stroke-width="3" transform="translate(0,255.75)scale(1,-1)translate(0,-255.75)rotate(-180,105,255.75)" pointer-events="none"/><ellipse cx="195" cy="255" rx="108.00000000000006" ry="90" fill="#fafafa" stroke="#e6e6e6" stroke-width="3" transform="translate(0,255)scale(1,-1)translate(0,-255)rotate(-180,195,255)" pointer-events="none"/><ellipse cx="285" cy="255.75" rx="90" ry="74.25" fill="#fafafa" stroke="#e6e6e6" stroke-width="3" transform="translate(0,255.75)scale(1,-1)translate(0,-255.75)rotate(-180,285,255.75)" pointer-events="none"/><rect x="74.4" y="189.75" width="241.2" height="108" fill="#fafafa" stroke="none" transform="translate(0,243.75)scale(1,-1)translate(0,-243.75)rotate(-180,195,243.75)" pointer-events="none"/><ellipse cx="123" cy="156" rx="108" ry="108" fill="#ffffff" stroke="#000000" stroke-width="3" transform="translate(123,0)scale(-1,1)translate(-123,0)" pointer-events="none"/><path d="M 25.8 156 C 25.8 102.32 69.32 58.8 123 58.8 C 176.68 58.8 220.2 102.32 220.2 156 L 231 156 C 231 96.35 182.65 48 123 48 C 63.35 48 15 96.35 15 156 Z" fill="#ddeeff" stroke="none" transform="translate(123,0)scale(-1,1)translate(-123,0)" pointer-events="none"/><path d="M 25.8 156 C 25.82 181.77 36.08 206.48 54.31 224.69 L 46.54 232.46 C 26.29 212.17 14.95 184.66 15 156 Z" fill="#99ccff" stroke="none" transform="translate(123,0)scale(-1,1)translate(-123,0)" pointer-events="none"/><path d="M 231 156 C 231.05 184.66 219.71 212.17 199.46 232.46 L 191.69 224.69 C 209.92 206.48 220.18 181.77 220.2 156 Z" fill="#bbddff" stroke="none" transform="translate(123,0)scale(-1,1)translate(-123,0)" pointer-events="none"/><g fill="#666666" font-family="Arial,Helvetica" pointer-events="none" text-anchor="middle" font-size="36px" transform="translate(123,0)scale(-1,1)translate(-123,0)"/><g fill="#666666" font-family="Arial,Helvetica" pointer-events="none" font-size="36px" transform="translate(123,0)scale(-1,1)translate(-123,0)"/><g fill="#666666" font-family="Arial,Helvetica" pointer-events="none" text-anchor="end" font-size="36px" transform="translate(123,0)scale(-1,1)translate(-123,0)"/><path d="M 47.17 124.59 L 127.13 146.02 C 132.64 148.3 135.26 154.62 132.98 160.13 C 131.88 162.78 129.78 164.88 127.13 165.98 C 124.49 167.07 121.51 167.07 118.87 165.98 Z" fill="#008cff" stroke="none" transform="translate(123,0)scale(-1,1)translate(-123,0)" pointer-events="none"/><path d="M 120.84 153.84 L 125.16 153.84 L 125.16 158.16 L 120.84 158.16 Z" fill="#ffffff" stroke="none" transform="translate(123,0)scale(-1,1)translate(-123,0)" pointer-events="none"/><ellipse cx="123" cy="156" rx="108" ry="108" fill="none" stroke="#000000" stroke-width="3" transform="translate(123,0)scale(-1,1)translate(-123,0)" pointer-events="none"/><path d="M 46.54 232.46 L 62.3 216.7 M 199.46 232.46 L 183.7 216.7" fill="none" stroke="#000000" stroke-width="3" stroke-miterlimit="10" transform="translate(123,0)scale(-1,1)translate(-123,0)" pointer-events="none"/><g fill="#666666" font-family="Helvetica" pointer-events="none" text-anchor="middle" font-size="36px"><text x="125.5" y="114.5">CPU[%]</text></g><g fill="#666666" font-family="Helvetica" pointer-events="none" font-size="36px"><text x="71.5" y="239.83">0</text></g><g fill="#666666" font-family="Helvetica" pointer-events="none" text-anchor="end" font-size="36px"><text x="170.5" y="239.83">100</text></g><rect x="243" y="48" width="135" height="207" fill="#ffffff" stroke="none" pointer-events="none"/><rect x="243" y="89.4" width="101.25" height="10.35" fill="#008cff" stroke="none" pointer-events="none"/><rect x="243" y="141.15" width="81" height="10.35" fill="#008cff" stroke="none" pointer-events="none"/><rect x="243" y="192.9" width="128.25" height="10.35" fill="#008cff" stroke="none" pointer-events="none"/><rect x="243" y="99.75" width="114.75" height="10.35" fill="#dddddd" stroke="none" pointer-events="none"/><rect x="243" y="151.5" width="87.75" height="10.35" fill="#dddddd" stroke="none" pointer-events="none"/><rect x="243" y="203.25" width="108" height="10.35" fill="#dddddd" stroke="none" pointer-events="none"/><path d="M 243 48 L 243 255 L 378 255" fill="none" stroke="#666666" stroke-width="6" stroke-miterlimit="10" pointer-events="none"/></g></svg>